<?xml version="1.0" encoding="utf-8"?>
<!-- Generator: Adobe Illustrator 26.0.2, SVG Export Plug-In . SVG Version: 6.00 Build 0)  -->
<svg version="1.1" id="Layer_1" xmlns="http://www.w3.org/2000/svg" xmlns:xlink="http://www.w3.org/1999/xlink" x="0px" y="0px"
	 viewBox="0 0 1080 1080" style="enable-background:new 0 0 1080 1080;" xml:space="preserve">
<style type="text/css">
	.st0{fill:#C0D725;}
	.st1{fill:#FFFFFF;}
</style>
<path class="st0" d="M626,791.3c-42.7-24.2-76-57.7-99.9-100.7c-18.6-33.6-30.1-70.9-34.1-112v243.5h219
	c-23.1-4.3-45-11.3-65.6-20.9C638.8,798.2,632.4,794.9,626,791.3z"/>
<path class="st1" d="M353.6,287.7c-30.8-15.4-68.5-23.1-113.1-23.1H20v558.9h136.1V622.9h84.4c45.7,0,83.9-8.2,114.7-24.7
	c30.8-16.4,53.6-38.1,68.5-64.9c14.8-26.8,22.3-56.4,22.3-88.8c0-35.1-7.7-66.1-23.1-93.2C407.5,324.3,384.4,303.1,353.6,287.7z
	 M247.4,541.7v-50.3h-95.5v-89.9h95.5v-50.3l106.7,95.2L247.4,541.7z"/>
<path class="st0" d="M492,507.9c4.1-41.1,15.5-78.6,34.1-112.3c23.9-43.2,57.3-77,99.9-101.1c0-0.1,0.1-0.1,0.2-0.1
	c42.7-24,91-36.1,145.1-36.1c61.7,0,115.1,15.2,160.3,45.5c46.4,35.1,82,85.1,101,143.4H845.9V340.9l-49.2,43.9L628.9,534.5
	l-8.3,7.4l8.3,7.5l170.2,151.9l46.8,41.7V636.8h186.7c-22.3,69.1-68.4,126.5-127.8,161.2c-0.2,0-0.2,0.1-0.3,0.1
	c-22.2,11.1-46.1,19.1-71.8,23.9H1060V256.5H492V507.9z"/>
</svg>
