<?xml version="1.0" encoding="utf-8"?>
<!-- Generator: Adobe Illustrator 26.0.2, SVG Export Plug-In . SVG Version: 6.00 Build 0)  -->
<svg version="1.1" id="Layer_1" xmlns="http://www.w3.org/2000/svg" xmlns:xlink="http://www.w3.org/1999/xlink" x="0px" y="0px"
	 viewBox="0 0 1080 1080" style="enable-background:new 0 0 1080 1080;" xml:space="preserve">
<style type="text/css">
	.st0{fill:#C0D725;}
	.st1{fill:#282828;}
</style>
<path class="st0" d="M817.5,594.5c-7.8,0-14,2.5-18.5,7.4c-4.6,4.9-6.9,11.8-6.9,20.7v71.6h50.9v-71.6c0-8.9-2.3-15.8-6.9-20.7
	C831.5,597,825.3,594.5,817.5,594.5z"/>
<path class="st0" d="M452.3,685c-12.7-7.2-22.7-17.2-29.8-30.1c-5.6-10-9-21.2-10.2-33.5v72.7h65.4c-6.9-1.3-13.4-3.4-19.6-6.2
	C456.1,687.1,454.2,686.1,452.3,685z"/>
<path class="st1" d="M206.1,584.1V562h-40.7v132.7h40.7v-61.6c0-10.9,2.5-18.6,7.6-23c5.1-4.3,12.7-6.5,22.8-6.5h11.2v-43
	c-8.7,0-16.6,2.1-23.8,6.3C216.8,571,210.8,576.8,206.1,584.1z"/>
<path class="st1" d="M363.3,568.4c-10.5-5.5-22.2-8.3-35.2-8.3c-13,0-24.7,2.8-35.2,8.3c-10.5,5.6-18.7,13.5-24.7,23.9
	c-6,10.4-9,22.4-9,36c0,13.8,3,25.9,8.9,36.2c5.9,10.3,14.1,18.2,24.5,23.8c10.4,5.5,22.1,8.3,35.1,8.3c13,0,24.8-2.8,35.3-8.3
	c10.5-5.5,18.9-13.5,25-23.9c6.1-10.4,9.2-22.4,9.2-36c0-13.6-3-25.6-9.1-36C382,581.9,373.7,573.9,363.3,568.4z M347.5,652.8
	c-5.5,5.7-12.1,8.5-19.9,8.5c-7.8,0-14.2-2.9-19.4-8.5c-5.2-5.7-7.7-13.9-7.7-24.5c0-10.8,2.6-19,7.8-24.6
	c5.2-5.6,11.8-8.4,19.7-8.4c7.8,0,14.3,2.8,19.6,8.5c5.3,5.7,8,13.9,8,24.5C355.7,638.9,352.9,647.1,347.5,652.8z"/>
<path class="st1" d="M116.6,534.6c-9.2-4.6-20.4-6.9-33.8-6.9H17v166.9h40.7v-59.9h25.2c13.6,0,25.1-2.5,34.3-7.4
	c9.2-4.9,16-11.4,20.5-19.4c4.4-8,6.7-16.8,6.7-26.5c0-10.5-2.3-19.7-6.9-27.8C132.7,545.6,125.8,539.2,116.6,534.6z M84.9,610.5
	v-15H56.4v-26.8h28.5v-15l31.9,28.4L84.9,610.5z"/>
<path class="st0" d="M688.4,628.3c0-10.6-2.6-18.8-7.9-24.5c-5.3-5.7-11.9-8.6-19.6-8.6c-7.9,0-14.5,2.8-19.8,8.4
	c-5.2,5.6-7.8,13.8-7.8,24.6c0,10.6,2.6,18.8,7.7,24.5c5.2,5.7,11.6,8.6,19.4,8.6c7.8,0,14.4-2.9,19.9-8.6
	C685.6,647.1,688.4,638.9,688.4,628.3z"/>
<path class="st0" d="M412.3,525.3v75.1c1.2-12.3,4.6-23.5,10.2-33.6c7.1-12.9,17.1-23,29.8-30.2c0,0,0,0,0.1,0
	c12.8-7.2,27.2-10.8,43.3-10.8c18.4,0,34.4,4.5,47.9,13.6c13.9,10.5,24.5,25.4,30.2,42.8H518v-31.7l-14.7,13.1l-50.1,44.7l-2.5,2.2
	l2.5,2.2l50.8,45.4l14,12.4v-31.7h55.8c-6.7,20.6-20.4,37.8-38.2,48.2c0,0-0.1,0-0.1,0c-6.6,3.3-13.8,5.7-21.4,7.2h126.7
	c-5.5-1.4-10.7-3.4-15.6-6c-10.4-5.6-18.5-13.5-24.5-23.8c-6-10.3-8.9-22.4-8.9-36.2c0-13.6,3-25.6,9-36c6-10.4,14.3-18.3,24.7-23.9
	c10.5-5.6,22.2-8.3,35.2-8.3c13,0,24.7,2.8,35.2,8.3c10.5,5.6,18.7,13.5,24.7,23.9c6,10.4,9,22.4,9,36c0,13.7-3,25.7-9.2,36
	c-6.1,10.4-14.4,18.4-25,23.9c-5,2.6-10.2,4.6-15.7,6h71.5V562H792v17.6c4.1-5.9,9.7-10.5,16.7-13.9c7-3.4,14.8-5.1,23.5-5.1
	c15.5,0,28,5,37.2,15.1c9.3,10.1,13.9,23.9,13.9,41.5v77.1c0,0,42.8,0,42.8,0c36.3,0,71.6-14.7,97.2-40.5
	c29.7-29.9,41.4-73.8,39.5-115.1c-0.7-15.1-3.4-30.3-10.5-43.8c-0.1-0.1-0.1-0.2-0.2-0.3c-6.8-12.9-16.3-24.6-28.4-34.7
	c-16.7-13.9-36.3-24-56.4-32.3c-60.3-24.8-125.5-34.1-190.1-39.1c-66.8-5.2-133.8-6.6-200.7-3.6c-64,2.8-128,9.8-191,21.8
	c-62.8,12-124.6,29-184.4,51.7c-10.3,3.9-21.5,7.3-31.2,12.5c-1.4-2.4-5.7-17.3-7.2-25.4l-34.6,50.1c20.8,1.6,41.6,3.2,62.4,4.8
	c-7.5-6.8-13.6-15.1-18-24.2c62.3-19.6,126-34.6,190.5-45.2c171.5-28.3,353.5-35.1,524.4,1.1c29.4,6.2,59.2,12.4,86.3,25.8
	c25,12.4,47.6,32.1,58.4,57.5c2,4.7-1.5,9.8-6.5,9.8L412.3,525.3z M1007.3,592.8c0,14.8-7.6,28.3-16.9,39.4
	c-15.4,18.2-35.2,33.1-55.8,44.9c-6.2,3.6-12.5,6.9-19,10c-3.5,1.7-7,3.3-10.5,5c-0.1,0.1-0.3,0.1-0.4,0.2H904v-31.5l56.1-68h-55.7
	v-34.1h102.8C1007.3,558.6,1007.3,592.8,1007.3,592.8z"/>
<path class="st0" d="M982.2,694.2h80.7v-74.4c-4.1,10.2-11.8,25.5-25.9,40.4C1016.6,681.6,993.9,690.6,982.2,694.2z"/>
</svg>
